<svg width="296" height="88" viewBox="0 0 296 88" fill="none" xmlns="http://www.w3.org/2000/svg">
<path d="M39.142 72.6782C32.7106 72.6754 26.2481 72.6584 19.814 72.6895C19.3077 72.7036 18.5243 72.6188 18.4847 72.0616C18.4592 71.8071 18.5808 71.479 18.7619 71.1481C19.944 69.1429 21.1913 67.1603 22.348 65.1608C23.5981 62.9887 24.8425 60.7714 26.1011 58.605C32.1506 48.4404 38.0305 38.0835 44.0687 27.8877C44.5043 27.1439 44.9681 26.4171 45.381 25.6676C45.7487 25.0058 45.7515 24.4203 44.9172 24.2959C38.6951 24.1573 32.4363 24.3157 26.2199 24.2789C25.5411 24.2733 24.8708 24.2931 24.2033 24.2733C23.188 24.3044 22.3678 23.6935 21.9097 22.8196C20.8632 21.0491 19.8309 19.2504 18.7675 17.5054C18.3461 16.8181 18.3376 16.111 19.4208 16.046C32.4363 15.9414 45.4574 16.0545 58.4785 16.0092C58.9876 15.9951 59.8332 16.0601 59.9661 16.5296C60.0962 16.8577 59.8247 17.429 59.6041 17.7938C58.1617 20.178 56.7702 22.5424 55.3731 24.9436C50.0561 34.2201 44.5467 43.4118 39.2212 52.7166C37.2075 56.1416 35.1372 59.5524 33.1858 62.9915C32.9963 63.3479 32.886 63.6929 32.9567 63.939C33.067 64.3604 33.6722 64.4453 34.0964 64.4537C37.4507 64.4594 40.8587 64.4707 44.2299 64.4622C45.6044 64.482 45.9495 63.922 45.2198 62.737C43.916 60.5112 42.5924 58.3024 41.2971 56.0907C40.952 55.5081 40.7484 54.8378 40.9775 54.1732C41.9249 52.1312 43.2485 50.2363 44.312 48.265C44.5637 47.8578 44.92 47.1903 45.4602 47.3402C45.9269 47.4901 46.2804 48.1915 46.5519 48.6299C50.9611 56.1953 55.4127 63.741 59.7738 71.298C60.3564 72.384 59.4797 72.7234 58.4954 72.6838C52.0952 72.6782 45.6214 72.6895 39.2042 72.6782H39.1363H39.142Z" fill="#1D4ED8"/>
<path d="M4.21917 72.6781C3.48666 72.695 2.75415 72.6979 2.01882 72.6979C1.16187 72.6639 0.155025 72.811 0.00512946 72.0332C-0.0288091 71.7617 0.109776 71.4054 0.299266 71.0462C1.65964 68.6677 3.07657 66.3485 4.45108 63.9841C10.1499 54.0712 16.01 44.3026 21.6919 34.3897C22.9589 32.1893 24.2938 29.9664 25.5835 27.8028C26.0558 26.9685 26.8251 26.4735 27.7754 26.4537C29.164 26.4028 30.5527 26.4311 31.964 26.4254C32.787 26.4198 33.6609 26.5555 34.2209 27.2117C35.4709 28.9228 36.3986 30.911 37.5186 32.6899C38.1408 33.6317 37.8862 34.7121 37.281 35.5917C36.2911 37.2434 35.3861 38.9007 34.4415 40.5382C33.1942 42.7358 32.1167 39.7096 31.3955 38.6179C30.5555 36.9832 29.8569 36.7343 28.9774 38.3662C24.8595 45.5442 20.6596 52.7307 16.4342 59.8578C14.3216 63.5316 12.1099 67.2705 9.9859 70.8963C9.70025 71.3828 9.36652 71.9145 8.91684 72.2199C7.6696 72.9722 5.75772 72.5225 4.28704 72.6696H4.21917V72.6781Z" fill="#1D4ED8"/>
<path d="M91.65 65.25C87.6833 65.25 84.2333 64.5333 81.3 63.1C78.3667 61.6333 76.1167 59.5667 74.55 56.9C72.9833 54.2333 72.2 51.1333 72.2 47.6C72.2 42.7 73.1167 38.35 74.95 34.55C76.8167 30.75 79.3333 27.8167 82.5 25.75C85.6667 23.65 89.1833 22.6 93.05 22.6C96.65 22.6 99.3833 23.5333 101.25 25.4C103.117 27.2333 104.05 29.6667 104.05 32.7C104.05 34.7333 103.683 36.3667 102.95 37.6C102.25 38.8333 101.233 39.45 99.9 39.45C98.9667 39.45 98.2333 39.2333 97.7 38.8C97.1667 38.3667 96.9 37.7333 96.9 36.9C96.9 36.6 96.9667 36.05 97.1 35.25C97.3 34.25 97.4 33.45 97.4 32.85C97.4 29.8167 95.7833 28.3 92.55 28.3C90.35 28.3 88.25 29.0167 86.25 30.45C84.25 31.8833 82.6333 34 81.4 36.8C80.1667 39.5667 79.55 42.8667 79.55 46.7C79.55 50.7 80.6667 53.8 82.9 56C85.1333 58.1667 88.4333 59.25 92.8 59.25C94.9667 59.25 97.15 58.9833 99.35 58.45C101.583 57.8833 104.05 57.0333 106.75 55.9C107.25 55.7 107.667 55.6 108 55.6C108.533 55.6 108.933 55.8 109.2 56.2C109.467 56.6 109.6 57.1167 109.6 57.75C109.6 59.7833 108.5 61.2833 106.3 62.25C103.933 63.2833 101.467 64.05 98.9 64.55C96.3667 65.0167 93.95 65.25 91.65 65.25ZM109.227 65.25C107.961 65.25 107.061 64.5833 106.527 63.25C106.027 61.9167 105.777 59.7833 105.777 56.85C105.777 52.5167 106.394 48.4 107.627 44.5C107.927 43.5333 108.411 42.8333 109.077 42.4C109.777 41.9333 110.744 41.7 111.977 41.7C112.644 41.7 113.111 41.7833 113.377 41.95C113.644 42.1167 113.777 42.4333 113.777 42.9C113.777 43.4333 113.527 44.6333 113.027 46.5C112.694 47.8333 112.427 49 112.227 50C112.027 51 111.861 52.2333 111.727 53.7C112.827 50.8333 114.061 48.5 115.427 46.7C116.794 44.9 118.127 43.6167 119.427 42.85C120.761 42.0833 121.977 41.7 123.077 41.7C125.244 41.7 126.327 42.7833 126.327 44.95C126.327 45.3833 126.177 46.4333 125.877 48.1C125.611 49.4333 125.477 50.2667 125.477 50.6C125.477 51.7667 125.894 52.35 126.727 52.35C127.661 52.35 128.861 51.6167 130.327 50.15C130.761 49.7167 131.211 49.5 131.677 49.5C132.111 49.5 132.444 49.7 132.677 50.1C132.944 50.4667 133.077 50.9667 133.077 51.6C133.077 52.8333 132.744 53.8 132.077 54.5C131.144 55.4667 130.044 56.3 128.777 57C127.544 57.6667 126.227 58 124.827 58C123.061 58 121.711 57.55 120.777 56.65C119.877 55.75 119.427 54.5333 119.427 53C119.427 52.5 119.477 52 119.577 51.5C119.644 50.8333 119.677 50.3833 119.677 50.15C119.677 49.6167 119.494 49.35 119.127 49.35C118.627 49.35 117.961 49.9167 117.127 51.05C116.327 52.15 115.527 53.6167 114.727 55.45C113.927 57.2833 113.277 59.2167 112.777 61.25C112.411 62.8167 111.977 63.8833 111.477 64.45C111.011 64.9833 110.261 65.25 109.227 65.25ZM134.581 65.25C132.515 65.25 130.865 64.5 129.631 63C128.398 61.5 127.781 59.5333 127.781 57.1C127.781 54.4333 128.398 51.9167 129.631 49.55C130.865 47.15 132.498 45.2333 134.531 43.8C136.598 42.3333 138.781 41.6 141.081 41.6C141.815 41.6 142.298 41.75 142.531 42.05C142.798 42.3167 143.015 42.8167 143.181 43.55C143.881 43.4167 144.615 43.35 145.381 43.35C147.015 43.35 147.831 43.9333 147.831 45.1C147.831 45.8 147.581 47.4667 147.081 50.1C146.315 53.9333 145.931 56.6 145.931 58.1C145.931 58.6 146.048 59 146.281 59.3C146.548 59.6 146.881 59.75 147.281 59.75C147.915 59.75 148.681 59.35 149.581 58.55C150.481 57.7167 151.698 56.3833 153.231 54.55C153.631 54.0833 154.081 53.85 154.581 53.85C155.015 53.85 155.348 54.05 155.581 54.45C155.848 54.85 155.981 55.4 155.981 56.1C155.981 57.4333 155.665 58.4667 155.031 59.2C153.665 60.9 152.215 62.3333 150.681 63.5C149.148 64.6667 147.665 65.25 146.231 65.25C145.131 65.25 144.115 64.8833 143.181 64.15C142.281 63.3833 141.598 62.35 141.131 61.05C139.398 63.85 137.215 65.25 134.581 65.25ZM136.381 60.2C137.115 60.2 137.815 59.7667 138.481 58.9C139.148 58.0333 139.631 56.8833 139.931 55.45L141.781 46.25C140.381 46.2833 139.081 46.8167 137.881 47.85C136.715 48.85 135.781 50.1833 135.081 51.85C134.381 53.5167 134.031 55.2833 134.031 57.15C134.031 58.1833 134.231 58.95 134.631 59.45C135.065 59.95 135.648 60.2 136.381 60.2ZM171.379 51C172.313 51 172.779 51.7 172.779 53.1C172.779 55.7333 170.713 57.05 166.579 57.05C165.779 57.05 164.629 56.9 163.129 56.6C163.563 58.6667 163.913 60.9667 164.179 63.5C164.479 66 164.629 68.0667 164.629 69.7C164.629 73.3 164.046 76.05 162.879 77.95C161.713 79.85 160.179 80.8 158.279 80.8C155.879 80.8 154.163 79.1 153.129 75.7C152.129 72.3 151.629 67.1667 151.629 60.3C151.629 53.9 152.313 47.4167 153.679 40.85C155.079 34.25 156.979 28.8 159.379 24.5C161.813 20.1667 164.479 18 167.379 18C168.946 18 170.163 18.7 171.029 20.1C171.929 21.5 172.379 23.3833 172.379 25.75C172.379 33.5833 167.696 42.1167 158.329 51.35C157.996 54.6167 157.829 57.4833 157.829 59.95C157.829 63.3833 157.946 66.9 158.179 70.5C158.413 74.1333 158.796 75.95 159.329 75.95C160.329 75.95 160.829 74.2167 160.829 70.75C160.829 68.15 160.646 65.6333 160.279 63.2C159.946 60.7667 159.479 58.2 158.879 55.5C158.846 55.0667 158.979 54.5167 159.279 53.85C159.613 53.1833 160.013 52.6 160.479 52.1C160.946 51.6 161.363 51.35 161.729 51.35C162.396 51.35 163.196 51.3833 164.129 51.45C164.429 51.4833 164.779 51.5 165.179 51.5C166.513 51.5 167.996 51.3833 169.629 51.15C169.896 51.1167 170.179 51.0833 170.479 51.05C170.779 51.0167 171.079 51 171.379 51ZM166.329 22.95C165.729 22.95 164.979 23.9667 164.079 26C163.213 28.0333 162.346 30.7333 161.479 34.1C160.613 37.4333 159.863 40.9667 159.229 44.7C161.896 41.6667 163.946 38.5167 165.379 35.25C166.813 31.95 167.546 28.8667 167.579 26C167.579 23.9667 167.163 22.95 166.329 22.95ZM191.796 53.85C192.229 53.85 192.562 54.05 192.796 54.45C193.062 54.85 193.196 55.4 193.196 56.1C193.196 57.4333 192.879 58.4667 192.246 59.2C190.812 60.9667 189.246 62.4167 187.546 63.55C185.846 64.6833 183.896 65.25 181.696 65.25C174.896 65.25 171.496 60.4667 171.496 50.9C171.496 49.4333 171.546 47.95 171.646 46.45H169.696C168.696 46.45 168.012 46.2667 167.646 45.9C167.312 45.5333 167.146 44.95 167.146 44.15C167.146 42.2833 167.896 41.35 169.396 41.35H172.246C172.812 37.6833 173.679 34.3333 174.846 31.3C176.012 28.2667 177.412 25.85 179.046 24.05C180.712 22.25 182.496 21.35 184.396 21.35C185.796 21.35 186.896 21.9667 187.696 23.2C188.496 24.4333 188.896 25.9833 188.896 27.85C188.896 33.0167 186.729 37.5167 182.396 41.35H187.996C188.529 41.35 188.912 41.4667 189.146 41.7C189.379 41.9333 189.496 42.3667 189.496 43C189.496 45.3 187.612 46.45 183.846 46.45H177.746C177.679 48.1167 177.646 49.4167 177.646 50.35C177.646 53.8167 178.046 56.25 178.846 57.65C179.679 59.05 180.979 59.75 182.746 59.75C184.179 59.75 185.446 59.3167 186.546 58.45C187.646 57.5833 188.946 56.2833 190.446 54.55C190.846 54.0833 191.296 53.85 191.796 53.85ZM183.046 26.15C182.546 26.15 181.979 26.7833 181.346 28.05C180.746 29.2833 180.162 31.0167 179.596 33.25C179.062 35.45 178.612 37.9 178.246 40.6C180.212 38.9 181.679 37 182.646 34.9C183.646 32.7667 184.146 30.8333 184.146 29.1C184.146 27.1333 183.779 26.15 183.046 26.15ZM231.075 23.55C232.008 23.6833 232.641 23.9667 232.975 24.4C233.341 24.8333 233.525 25.4 233.525 26.1C233.525 28.4 232.291 29.4667 229.825 29.3L228.075 29.15C226.108 28.9833 224.141 28.85 222.175 28.75C220.241 28.65 218.208 28.6 216.075 28.6H213.825C213.425 33.5333 213.008 38.0333 212.575 42.1L221.175 41.95C222.408 41.95 223.225 42.1667 223.625 42.6C224.058 43.0333 224.275 43.6167 224.275 44.35C224.275 45.4833 223.941 46.3833 223.275 47.05C222.608 47.6833 221.658 48 220.425 48H211.875L211.575 50.15C210.875 55.65 209.375 59.5667 207.075 61.9C204.808 64.2333 201.675 65.4 197.675 65.4C195.408 65.4 193.325 64.9167 191.425 63.95C189.525 62.95 188.125 61.75 187.225 60.35C186.858 59.7833 186.675 59.1 186.675 58.3C186.675 57.5 186.858 56.8 187.225 56.2C187.625 55.6 188.108 55.3 188.675 55.3C189.075 55.3 189.458 55.4333 189.825 55.7C190.225 55.9667 190.725 56.4833 191.325 57.25C192.925 59.35 194.908 60.4 197.275 60.4C199.175 60.4 200.758 59.6333 202.025 58.1C203.325 56.5333 204.158 54.0833 204.525 50.75L204.825 48H202.425C201.658 48 200.991 47.7833 200.425 47.35C199.891 46.9167 199.625 46.3 199.625 45.5C199.625 44.4667 199.891 43.6833 200.425 43.15C200.958 42.5833 201.741 42.3 202.775 42.3C203.708 42.3 204.625 42.2833 205.525 42.25C205.925 38.5833 206.358 34.1333 206.825 28.9C203.225 29.2333 200.691 29.8167 199.225 30.65C197.758 31.4833 197.025 32.7167 197.025 34.35C197.025 35.4833 197.358 36.5667 198.025 37.6C198.225 37.9 198.325 38.2 198.325 38.5C198.325 39.1 197.991 39.6333 197.325 40.1C196.658 40.5333 195.908 40.75 195.075 40.75C194.175 40.75 193.408 40.4833 192.775 39.95C192.375 39.6167 191.991 38.9333 191.625 37.9C191.258 36.8667 191.075 35.7167 191.075 34.45C191.075 30.3167 193.191 27.3167 197.425 25.45C201.691 23.5833 207.908 22.65 216.075 22.65C221.741 22.65 226.741 22.95 231.075 23.55ZM249.732 49.65C250.165 49.65 250.499 49.8667 250.732 50.3C250.965 50.7333 251.082 51.2833 251.082 51.95C251.082 53.55 250.599 54.5 249.632 54.8C247.632 55.5 245.432 55.9 243.032 56C242.399 58.8 241.149 61.05 239.282 62.75C237.415 64.4167 235.299 65.25 232.932 65.25C230.932 65.25 229.215 64.7667 227.782 63.8C226.382 62.8333 225.315 61.55 224.582 59.95C223.849 58.35 223.482 56.6167 223.482 54.75C223.482 52.2167 223.965 49.9667 224.932 48C225.899 46 227.232 44.45 228.932 43.35C230.632 42.2167 232.515 41.65 234.582 41.65C237.115 41.65 239.149 42.5333 240.682 44.3C242.249 46.0333 243.165 48.1833 243.432 50.75C244.999 50.65 246.865 50.3167 249.032 49.75C249.299 49.6833 249.532 49.65 249.732 49.65ZM233.332 59.95C234.399 59.95 235.315 59.5167 236.082 58.65C236.882 57.7833 237.415 56.5333 237.682 54.9C236.649 54.2 235.849 53.2833 235.282 52.15C234.749 51.0167 234.482 49.8167 234.482 48.55C234.482 48.0167 234.532 47.4833 234.632 46.95H234.382C233.049 46.95 231.932 47.6 231.032 48.9C230.165 50.1667 229.732 51.9667 229.732 54.3C229.732 56.1333 230.082 57.5333 230.782 58.5C231.515 59.4667 232.365 59.95 233.332 59.95ZM265.741 53.85C266.174 53.85 266.507 54.05 266.741 54.45C267.007 54.85 267.141 55.4 267.141 56.1C267.141 57.4333 266.824 58.4667 266.191 59.2C264.757 60.9667 263.191 62.4167 261.491 63.55C259.824 64.6833 257.924 65.25 255.791 65.25C252.857 65.25 250.674 63.9167 249.241 61.25C247.841 58.5833 247.141 55.1333 247.141 50.9C247.141 46.8333 247.657 42.2 248.691 37C249.757 31.8 251.307 27.3333 253.341 23.6C255.407 19.8667 257.857 18 260.691 18C262.291 18 263.541 18.75 264.441 20.25C265.374 21.7167 265.841 23.8333 265.841 26.6C265.841 30.5667 264.741 35.1667 262.541 40.4C260.341 45.6333 257.357 50.8167 253.591 55.95C253.824 57.3167 254.207 58.3 254.741 58.9C255.274 59.4667 255.974 59.75 256.841 59.75C258.207 59.75 259.407 59.3667 260.441 58.6C261.474 57.8 262.791 56.45 264.391 54.55C264.791 54.0833 265.241 53.85 265.741 53.85ZM259.591 22.95C258.824 22.95 257.957 24.3333 256.991 27.1C256.024 29.8667 255.174 33.3 254.441 37.4C253.707 41.5 253.307 45.4333 253.241 49.2C255.607 45.3 257.491 41.4 258.891 37.5C260.291 33.5667 260.991 29.9833 260.991 26.75C260.991 24.2167 260.524 22.95 259.591 22.95ZM269.649 38.4C268.249 38.4 267.199 38.0833 266.499 37.45C265.799 36.7833 265.449 35.8667 265.449 34.7C265.449 33.5333 265.899 32.5667 266.799 31.8C267.733 31 268.883 30.6 270.249 30.6C271.483 30.6 272.483 30.9 273.249 31.5C274.016 32.1 274.399 32.95 274.399 34.05C274.399 35.3833 273.966 36.45 273.099 37.25C272.233 38.0167 271.083 38.4 269.649 38.4ZM269.249 65.25C267.083 65.25 265.499 64.4833 264.499 62.95C263.533 61.4167 263.049 59.3833 263.049 56.85C263.049 55.35 263.233 53.4333 263.599 51.1C263.999 48.7333 264.499 46.5333 265.099 44.5C265.399 43.4333 265.799 42.7 266.299 42.3C266.799 41.9 267.599 41.7 268.699 41.7C270.399 41.7 271.249 42.2667 271.249 43.4C271.249 44.2333 270.933 46.1667 270.299 49.2C269.499 52.8667 269.099 55.35 269.099 56.65C269.099 57.65 269.233 58.4167 269.499 58.95C269.766 59.4833 270.216 59.75 270.849 59.75C271.449 59.75 272.199 59.3333 273.099 58.5C273.999 57.6667 275.199 56.35 276.699 54.55C277.099 54.0833 277.549 53.85 278.049 53.85C278.483 53.85 278.816 54.05 279.049 54.45C279.316 54.85 279.449 55.4 279.449 56.1C279.449 57.4333 279.133 58.4667 278.499 59.2C275.199 63.2333 272.116 65.25 269.249 65.25ZM283.854 65.25C281.887 65.25 280.204 64.7667 278.804 63.8C277.437 62.8 276.404 61.5 275.704 59.9C275.004 58.3 274.654 56.5833 274.654 54.75C274.654 52.2167 275.121 49.9667 276.054 48C277.021 46 278.321 44.45 279.954 43.35C281.587 42.2167 283.421 41.65 285.454 41.65C287.421 41.65 289.104 42.15 290.504 43.15C291.904 44.1167 292.954 45.4 293.654 47C294.354 48.6 294.704 50.3167 294.704 52.15C294.704 54.6833 294.221 56.95 293.254 58.95C292.287 60.9167 290.971 62.4667 289.304 63.6C287.671 64.7 285.854 65.25 283.854 65.25ZM284.404 59.85C285.537 59.85 286.487 59.2333 287.254 58C288.054 56.7667 288.454 54.9667 288.454 52.6C288.454 50.7667 288.121 49.3833 287.454 48.45C286.787 47.5167 285.987 47.05 285.054 47.05C283.854 47.05 282.854 47.6667 282.054 48.9C281.287 50.1 280.904 51.9 280.904 54.3C280.904 56.2 281.237 57.6 281.904 58.5C282.571 59.4 283.404 59.85 284.404 59.85Z" fill="#1D4ED8"/>
</svg>
