<svg width="214" height="35" viewBox="0 0 214 35" fill="none" xmlns="http://www.w3.org/2000/svg">
<path d="M25.336 11.928C25.336 13.7413 24.8667 15.4053 23.928 16.92C22.9893 18.4347 21.624 19.672 19.832 20.632C18.04 21.592 15.9067 22.1573 13.432 22.328L12.056 30.04C11.5227 33.0053 10.072 34.488 7.704 34.488C6.40267 34.488 5.19733 34.104 4.088 33.336C3 32.568 2.12533 31.3947 1.464 29.816C0.802667 28.2373 0.472 26.296 0.472 23.992C0.472 19.6613 1.16533 15.992 2.552 12.984C3.96 9.95467 5.83733 7.69333 8.184 6.2C10.552 4.68533 13.1547 3.928 15.992 3.928C17.9973 3.928 19.6933 4.28 21.08 4.984C22.488 5.688 23.544 6.648 24.248 7.864C24.9733 9.05866 25.336 10.4133 25.336 11.928ZM14.008 19.032C18.3813 18.4773 20.568 16.2053 20.568 12.216C20.568 10.808 20.0987 9.66667 19.16 8.792C18.2427 7.896 16.8133 7.448 14.872 7.448C12.6747 7.448 10.7547 8.14133 9.112 9.528C7.49067 10.9147 6.232 12.8453 5.336 15.32C4.46133 17.7733 4.024 20.5787 4.024 23.736C4.024 25.0587 4.152 26.232 4.408 27.256C4.68533 28.28 5.02667 29.08 5.432 29.656C5.85867 30.2107 6.264 30.488 6.648 30.488C7.18133 30.488 7.58667 29.752 7.864 28.28L8.92 22.232C8.088 22.104 7.72533 22.0507 7.832 22.072C7.192 21.9653 6.776 21.7733 6.584 21.496C6.392 21.1973 6.296 20.824 6.296 20.376C6.296 19.9067 6.424 19.5333 6.68 19.256C6.95733 18.9787 7.33067 18.84 7.8 18.84C8.01333 18.84 8.17333 18.8507 8.28 18.872C8.792 18.9573 9.18667 19.0107 9.464 19.032C9.74133 17.368 10.136 15.1387 10.648 12.344C10.776 11.6187 11.064 11.1067 11.512 10.808C11.9813 10.488 12.5253 10.328 13.144 10.328C13.848 10.328 14.3493 10.4667 14.648 10.744C14.968 11 15.128 11.416 15.128 11.992C15.128 12.3333 15.1067 12.6107 15.064 12.824L14.008 19.032ZM38.414 23.864C38.6913 23.864 38.9047 23.992 39.054 24.248C39.2247 24.504 39.31 24.856 39.31 25.304C39.31 26.1573 39.1073 26.8187 38.702 27.288C37.7847 28.4187 36.782 29.3467 35.694 30.072C34.6273 30.7973 33.4113 31.16 32.046 31.16C30.1687 31.16 28.7713 30.3067 27.854 28.6C26.958 26.8933 26.51 24.6853 26.51 21.976C26.51 19.3733 26.8407 16.408 27.502 13.08C28.1847 9.752 29.1767 6.89333 30.478 4.504C31.8007 2.11466 33.3687 0.919998 35.182 0.919998C36.206 0.919998 37.006 1.4 37.582 2.36C38.1793 3.29867 38.478 4.65333 38.478 6.424C38.478 8.96267 37.774 11.9067 36.366 15.256C34.958 18.6053 33.0487 21.9227 30.638 25.208C30.7873 26.0827 31.0327 26.712 31.374 27.096C31.7153 27.4587 32.1633 27.64 32.718 27.64C33.5927 27.64 34.3607 27.3947 35.022 26.904C35.6833 26.392 36.526 25.528 37.55 24.312C37.806 24.0133 38.094 23.864 38.414 23.864ZM34.478 4.088C33.9873 4.088 33.4327 4.97333 32.814 6.744C32.1953 8.51467 31.6513 10.712 31.182 13.336C30.7127 15.96 30.4567 18.4773 30.414 20.888C31.9287 18.392 33.134 15.896 34.03 13.4C34.926 10.8827 35.374 8.58933 35.374 6.52C35.374 4.89867 35.0753 4.088 34.478 4.088ZM39.9875 31.16C39.0275 31.16 38.2382 30.7227 37.6195 29.848C37.0222 28.952 36.7235 27.8427 36.7235 26.52C36.7235 24.92 36.8302 23.4587 37.0435 22.136C37.2568 20.792 37.6088 19.3733 38.0995 17.88C38.3128 17.24 38.6115 16.7813 38.9955 16.504C39.3795 16.2267 39.9875 16.088 40.8195 16.088C41.2888 16.088 41.6088 16.1627 41.7795 16.312C41.9715 16.4613 42.0675 16.6853 42.0675 16.984C42.0675 17.1547 41.9502 17.7307 41.7155 18.712C41.5022 19.5013 41.3315 20.216 41.2035 20.856C40.7768 23.096 40.5635 24.5893 40.5635 25.336C40.5635 25.784 40.6168 26.104 40.7235 26.296C40.8302 26.4667 41.0008 26.552 41.2355 26.552C41.5555 26.552 41.9502 26.232 42.4195 25.592C42.9102 24.952 43.4222 23.9813 43.9555 22.68C44.5102 21.3787 45.0435 19.7787 45.5555 17.88C45.7262 17.24 45.9822 16.7813 46.3235 16.504C46.6862 16.2267 47.2195 16.088 47.9235 16.088C48.4142 16.088 48.7555 16.152 48.9475 16.28C49.1395 16.3867 49.2355 16.6 49.2355 16.92C49.2355 17.4533 48.9688 18.9147 48.4355 21.304C47.8382 24.0347 47.5395 25.72 47.5395 26.36C47.5395 26.7653 47.6248 27.0853 47.7955 27.32C47.9662 27.5333 48.1902 27.64 48.4675 27.64C48.8942 27.64 49.3955 27.384 49.9715 26.872C50.5688 26.3387 51.3582 25.4853 52.3395 24.312C52.5955 24.0133 52.8835 23.864 53.2035 23.864C53.4808 23.864 53.6942 23.992 53.8435 24.248C54.0142 24.504 54.0995 24.856 54.0995 25.304C54.0995 26.1573 53.8968 26.8187 53.4915 27.288C52.5742 28.4187 51.5822 29.3467 50.5155 30.072C49.4702 30.7973 48.2755 31.16 46.9315 31.16C45.9075 31.16 45.1502 30.7653 44.6595 29.976C44.1902 29.1867 43.9555 28.0773 43.9555 26.648C43.5928 28.0987 43.0488 29.2187 42.3235 30.008C41.5982 30.776 40.8195 31.16 39.9875 31.16ZM53.7768 31.16C52.9661 31.16 52.3901 30.7333 52.0488 29.88C51.7288 29.0267 51.5688 27.6613 51.5688 25.784C51.5688 23.0107 51.9634 20.376 52.7528 17.88C52.9448 17.2613 53.2541 16.8133 53.6808 16.536C54.1288 16.2373 54.7474 16.088 55.5368 16.088C55.9634 16.088 56.2621 16.1413 56.4328 16.248C56.6034 16.3547 56.6888 16.5573 56.6888 16.856C56.6888 17.1973 56.5288 17.9653 56.2088 19.16C55.9954 20.0133 55.8248 20.76 55.6968 21.4C55.5688 22.0187 55.4621 22.7973 55.3768 23.736C55.9528 22.072 56.6354 20.664 57.4248 19.512C58.2354 18.36 59.0568 17.5067 59.8888 16.952C60.7421 16.376 61.5421 16.088 62.2888 16.088C63.0354 16.088 63.5581 16.2587 63.8568 16.6C64.1768 16.9413 64.3368 17.464 64.3368 18.168C64.3368 18.8507 64.1341 20.088 63.7288 21.88C63.5581 22.648 63.4408 23.224 63.3768 23.608C64.4434 20.984 65.6274 19.0747 66.9288 17.88C68.2301 16.6853 69.4461 16.088 70.5768 16.088C71.9634 16.088 72.6568 16.7813 72.6568 18.168C72.6568 19 72.4221 20.504 71.9528 22.68C71.5474 24.536 71.3448 25.7627 71.3448 26.36C71.3448 27.2133 71.6541 27.64 72.2728 27.64C72.6994 27.64 73.2008 27.384 73.7768 26.872C74.3741 26.3387 75.1634 25.4853 76.1448 24.312C76.4008 24.0133 76.6888 23.864 77.0088 23.864C77.2861 23.864 77.4994 23.992 77.6488 24.248C77.8194 24.504 77.9048 24.856 77.9048 25.304C77.9048 26.1573 77.7021 26.8187 77.2968 27.288C76.3794 28.4187 75.3874 29.3467 74.3208 30.072C73.2754 30.7973 72.0808 31.16 70.7368 31.16C69.6488 31.16 68.8274 30.8507 68.2728 30.232C67.7181 29.592 67.4408 28.6747 67.4408 27.48C67.4408 26.8827 67.5901 25.816 67.8888 24.28C68.1661 22.936 68.3048 22.008 68.3048 21.496C68.3048 21.1547 68.1874 20.984 67.9528 20.984C67.6754 20.984 67.2808 21.3467 66.7688 22.072C66.2568 22.776 65.7448 23.7147 65.2328 24.888C64.7208 26.0613 64.3048 27.2987 63.9848 28.6C63.7501 29.624 63.4728 30.3067 63.1528 30.648C62.8541 30.9893 62.3634 31.16 61.6808 31.16C60.9768 31.16 60.4434 30.8293 60.0808 30.168C59.7394 29.4853 59.5688 28.664 59.5688 27.704C59.5688 26.8933 59.6754 25.72 59.8888 24.184C60.0594 22.8187 60.1448 21.9227 60.1448 21.496C60.1448 21.1547 60.0274 20.984 59.7928 20.984C59.4728 20.984 59.0674 21.368 58.5768 22.136C58.0861 22.904 57.6061 23.8853 57.1368 25.08C56.6888 26.2747 56.3261 27.448 56.0488 28.6C55.8141 29.6027 55.5368 30.2853 55.2168 30.648C54.9181 30.9893 54.4381 31.16 53.7768 31.16ZM86.7733 24.824C87.0506 24.824 87.2639 24.952 87.4133 25.208C87.5839 25.464 87.6693 25.816 87.6693 26.264C87.6693 27.032 87.4879 27.6933 87.1253 28.248C86.5279 29.1653 85.7386 29.88 84.7573 30.392C83.7973 30.904 82.6453 31.16 81.3013 31.16C79.2533 31.16 77.6639 30.552 76.5333 29.336C75.4026 28.0987 74.8372 26.4347 74.8372 24.344C74.8372 22.872 75.1466 21.5067 75.7653 20.248C76.3839 18.968 77.2373 17.9547 78.3253 17.208C79.4346 16.4613 80.6826 16.088 82.0693 16.088C83.3066 16.088 84.2986 16.4613 85.0453 17.208C85.7919 17.9333 86.1653 18.9253 86.1653 20.184C86.1653 21.656 85.6319 22.9253 84.5653 23.992C83.5199 25.0373 81.7279 25.8693 79.1893 26.488C79.7013 27.4693 80.5653 27.96 81.7812 27.96C82.6559 27.96 83.3706 27.7573 83.9253 27.352C84.5013 26.9467 85.1626 26.264 85.9093 25.304C86.1653 24.984 86.4533 24.824 86.7733 24.824ZM81.5253 19.224C80.7359 19.224 80.0639 19.6827 79.5093 20.6C78.9759 21.5173 78.7093 22.6267 78.7093 23.928V23.992C79.9679 23.6933 80.9599 23.2453 81.6853 22.648C82.4106 22.0507 82.7733 21.3573 82.7733 20.568C82.7733 20.1627 82.6559 19.8427 82.4213 19.608C82.2079 19.352 81.9093 19.224 81.5253 19.224ZM119.566 25.176C119.886 25.048 120.153 24.984 120.366 24.984C120.708 24.984 120.964 25.112 121.134 25.368C121.305 25.624 121.39 25.9547 121.39 26.36C121.39 27 121.23 27.544 120.91 27.992C120.612 28.44 120.089 28.8453 119.342 29.208C118.084 29.8053 116.452 30.2853 114.446 30.648C112.441 30.9893 110.468 31.16 108.526 31.16C105.838 31.16 103.588 30.8613 101.774 30.264C99.9609 29.6453 98.6063 28.8027 97.7103 27.736C96.8356 26.6693 96.3983 25.464 96.3983 24.12C96.3983 22.2853 96.9849 20.728 98.1583 19.448C99.3529 18.1467 101.102 17.208 103.406 16.632C102.148 16.2693 101.177 15.6293 100.494 14.712C99.8329 13.7947 99.5023 12.7707 99.5023 11.64C99.5023 10.104 99.9823 8.74933 100.942 7.576C101.924 6.38133 103.236 5.464 104.878 4.824C106.521 4.184 108.324 3.864 110.286 3.864C112.932 3.864 114.916 4.44 116.238 5.592C117.561 6.72267 118.222 8.19467 118.222 10.008C118.222 11.2667 117.988 12.2907 117.518 13.08C117.07 13.848 116.42 14.232 115.566 14.232C114.969 14.232 114.5 14.104 114.158 13.848C113.817 13.5707 113.646 13.1653 113.646 12.632C113.646 12.2693 113.7 11.8747 113.806 11.448C113.913 10.744 113.966 10.264 113.966 10.008C113.966 9.24 113.678 8.62133 113.102 8.152C112.526 7.66133 111.566 7.416 110.222 7.416C108.409 7.416 106.958 7.8 105.87 8.568C104.782 9.336 104.238 10.3707 104.238 11.672C104.238 12.6747 104.644 13.5067 105.454 14.168C106.286 14.808 107.63 15.16 109.486 15.224C109.956 15.2453 110.286 15.352 110.478 15.544C110.67 15.736 110.766 16.056 110.766 16.504C110.766 17.912 110.126 18.6267 108.846 18.648C107.076 18.6907 105.604 18.936 104.43 19.384C103.278 19.832 102.436 20.408 101.902 21.112C101.39 21.7947 101.134 22.5307 101.134 23.32C101.134 24.6427 101.753 25.6453 102.99 26.328C104.228 26.9893 106.19 27.32 108.878 27.32C110.649 27.32 112.516 27.1173 114.478 26.712C116.462 26.2853 118.158 25.7733 119.566 25.176ZM124.16 19.128C124.117 20.1947 124.096 21.0267 124.096 21.624C124.096 23.16 124.17 24.3653 124.32 25.24C124.49 26.0933 124.757 26.712 125.12 27.096C125.504 27.4587 126.026 27.64 126.688 27.64C127.029 27.64 127.434 27.5333 127.904 27.32C128.373 27.1067 128.8 26.8293 129.184 26.488C129.418 26.2747 129.653 26.168 129.888 26.168C130.144 26.168 130.346 26.3173 130.496 26.616C130.666 26.8933 130.752 27.2347 130.752 27.64C130.752 28.0453 130.666 28.44 130.496 28.824C130.346 29.208 130.112 29.528 129.792 29.784C128.682 30.7013 127.424 31.16 126.016 31.16C123.989 31.16 122.506 30.3173 121.568 28.632C120.629 26.9253 120.16 24.7067 120.16 21.976C120.16 21.0373 120.192 20.088 120.256 19.128H119.008C118.368 19.128 117.93 19.0107 117.696 18.776C117.482 18.5413 117.376 18.168 117.376 17.656C117.376 16.4613 117.856 15.864 118.816 15.864H120.64C121.002 13.5173 121.557 11.3733 122.304 9.432C123.05 7.49067 123.946 5.944 124.992 4.792C126.058 3.64 127.2 3.064 128.416 3.064C129.312 3.064 130.016 3.45867 130.528 4.248C131.04 5.03733 131.296 6.02933 131.296 7.224C131.296 10.5307 129.909 13.4107 127.136 15.864H130.72C131.061 15.864 131.306 15.9387 131.456 16.088C131.605 16.2373 131.68 16.5147 131.68 16.92C131.68 18.392 130.474 19.128 128.064 19.128H124.16ZM127.552 6.136C127.232 6.136 126.869 6.54133 126.464 7.352C126.08 8.14133 125.706 9.25067 125.344 10.68C125.002 12.088 124.714 13.656 124.48 15.384C125.738 14.296 126.677 13.08 127.296 11.736C127.936 10.3707 128.256 9.13333 128.256 8.024C128.256 6.76533 128.021 6.136 127.552 6.136ZM165.367 11.928C165.367 13.7413 164.898 15.4053 163.959 16.92C163.021 18.4347 161.655 19.672 159.863 20.632C158.071 21.592 155.938 22.1573 153.463 22.328L152.087 30.04C151.554 33.0053 150.103 34.488 147.735 34.488C146.434 34.488 145.229 34.104 144.119 33.336C143.031 32.568 142.157 31.3947 141.495 29.816C140.834 28.2373 140.503 26.296 140.503 23.992C140.503 19.6613 141.197 15.992 142.583 12.984C143.991 9.95467 145.869 7.69333 148.215 6.2C150.583 4.68533 153.186 3.928 156.023 3.928C158.029 3.928 159.725 4.28 161.111 4.984C162.519 5.688 163.575 6.648 164.279 7.864C165.005 9.05866 165.367 10.4133 165.367 11.928ZM154.039 19.032C158.413 18.4773 160.599 16.2053 160.599 12.216C160.599 10.808 160.13 9.66667 159.191 8.792C158.274 7.896 156.845 7.448 154.903 7.448C152.706 7.448 150.786 8.14133 149.143 9.528C147.522 10.9147 146.263 12.8453 145.367 15.32C144.493 17.7733 144.055 20.5787 144.055 23.736C144.055 25.0587 144.183 26.232 144.439 27.256C144.717 28.28 145.058 29.08 145.463 29.656C145.89 30.2107 146.295 30.488 146.679 30.488C147.213 30.488 147.618 29.752 147.895 28.28L148.951 22.232C148.119 22.104 147.757 22.0507 147.863 22.072C147.223 21.9653 146.807 21.7733 146.615 21.496C146.423 21.1973 146.327 20.824 146.327 20.376C146.327 19.9067 146.455 19.5333 146.711 19.256C146.989 18.9787 147.362 18.84 147.831 18.84C148.045 18.84 148.205 18.8507 148.311 18.872C148.823 18.9573 149.218 19.0107 149.495 19.032C149.773 17.368 150.167 15.1387 150.679 12.344C150.807 11.6187 151.095 11.1067 151.543 10.808C152.013 10.488 152.557 10.328 153.175 10.328C153.879 10.328 154.381 10.4667 154.679 10.744C154.999 11 155.159 11.416 155.159 11.992C155.159 12.3333 155.138 12.6107 155.095 12.824L154.039 19.032ZM168.603 13.976C167.707 13.976 167.035 13.7733 166.587 13.368C166.139 12.9413 165.915 12.3547 165.915 11.608C165.915 10.8613 166.203 10.2427 166.779 9.752C167.376 9.24 168.112 8.984 168.987 8.984C169.776 8.984 170.416 9.176 170.907 9.56C171.398 9.944 171.643 10.488 171.643 11.192C171.643 12.0453 171.366 12.728 170.811 13.24C170.256 13.7307 169.52 13.976 168.603 13.976ZM168.347 31.16C166.96 31.16 165.947 30.6693 165.307 29.688C164.688 28.7067 164.379 27.4053 164.379 25.784C164.379 24.824 164.496 23.5973 164.731 22.104C164.987 20.5893 165.307 19.1813 165.691 17.88C165.883 17.1973 166.139 16.728 166.459 16.472C166.779 16.216 167.291 16.088 167.995 16.088C169.083 16.088 169.627 16.4507 169.627 17.176C169.627 17.7093 169.424 18.9467 169.019 20.888C168.507 23.2347 168.251 24.824 168.251 25.656C168.251 26.296 168.336 26.7867 168.507 27.128C168.678 27.4693 168.966 27.64 169.371 27.64C169.755 27.64 170.235 27.3733 170.811 26.84C171.387 26.3067 172.155 25.464 173.115 24.312C173.371 24.0133 173.659 23.864 173.979 23.864C174.256 23.864 174.47 23.992 174.619 24.248C174.79 24.504 174.875 24.856 174.875 25.304C174.875 26.1573 174.672 26.8187 174.267 27.288C172.155 29.8693 170.182 31.16 168.347 31.16ZM190.91 23.864C191.187 23.864 191.401 23.992 191.55 24.248C191.721 24.504 191.806 24.856 191.806 25.304C191.806 26.1573 191.603 26.8187 191.198 27.288C190.259 28.3973 189.225 29.3253 188.094 30.072C186.985 30.7973 185.726 31.16 184.318 31.16C183.23 31.16 182.259 30.9573 181.406 30.552C180.574 30.1467 179.913 29.5707 179.422 28.824C178.206 30.36 176.766 31.128 175.102 31.128C173.929 31.128 173.001 30.7867 172.318 30.104C171.635 29.4213 171.294 28.5147 171.294 27.384C171.294 26.3173 171.539 25.4533 172.03 24.792C172.521 24.1307 173.214 23.8 174.11 23.8C174.878 23.8 175.262 24.088 175.262 24.664C175.262 24.8133 175.241 25.08 175.198 25.464C175.134 26.232 175.102 26.6693 175.102 26.776C175.102 27.416 175.379 27.736 175.934 27.736C176.339 27.736 176.723 27.5013 177.086 27.032C177.47 26.5413 177.779 25.88 178.014 25.048C178.27 24.216 178.398 23.2987 178.398 22.296C178.398 21.528 178.302 20.888 178.11 20.376C177.918 19.8427 177.683 19.576 177.406 19.576C177.171 19.576 177.001 19.64 176.894 19.768C176.787 19.8747 176.681 20.0667 176.574 20.344C176.446 20.6853 176.275 20.9627 176.062 21.176C175.849 21.368 175.475 21.464 174.942 21.464C174.473 21.464 174.099 21.304 173.822 20.984C173.545 20.6427 173.406 20.1307 173.406 19.448C173.406 18.36 173.737 17.5067 174.398 16.888C175.059 16.2693 175.913 15.96 176.958 15.96C177.854 15.96 178.665 16.184 179.39 16.632C180.115 17.0587 180.67 17.688 181.054 18.52C181.694 17.6667 182.409 17.0267 183.198 16.6C184.009 16.1733 184.798 15.96 185.566 15.96C186.398 15.96 187.027 16.152 187.454 16.536C187.902 16.92 188.126 17.5387 188.126 18.392C188.126 19.352 187.945 20.1093 187.582 20.664C187.219 21.1973 186.782 21.464 186.27 21.464C185.801 21.464 185.481 21.368 185.31 21.176C185.139 20.984 185.011 20.7067 184.926 20.344C184.883 20.088 184.819 19.896 184.734 19.768C184.649 19.64 184.499 19.576 184.286 19.576C184.03 19.576 183.753 19.8213 183.454 20.312C183.177 20.7813 182.931 21.4107 182.718 22.2C182.526 22.9893 182.43 23.8107 182.43 24.664C182.43 25.6667 182.665 26.4453 183.134 27C183.625 27.5333 184.286 27.8 185.118 27.8C185.95 27.8 186.729 27.5227 187.454 26.968C188.201 26.392 189.065 25.5067 190.046 24.312C190.302 24.0133 190.59 23.864 190.91 23.864ZM203.496 23.864C203.773 23.864 203.986 23.992 204.135 24.248C204.306 24.504 204.392 24.856 204.392 25.304C204.392 26.1573 204.189 26.8187 203.784 27.288C202.994 28.248 201.874 29.1333 200.424 29.944C198.994 30.7547 197.458 31.16 195.816 31.16C193.576 31.16 191.837 30.552 190.6 29.336C189.362 28.12 188.743 26.456 188.743 24.344C188.743 22.872 189.053 21.5067 189.672 20.248C190.29 18.968 191.144 17.9547 192.232 17.208C193.341 16.4613 194.589 16.088 195.976 16.088C197.213 16.088 198.205 16.4613 198.952 17.208C199.698 17.9333 200.072 18.9253 200.072 20.184C200.072 21.656 199.538 22.9253 198.472 23.992C197.426 25.0373 195.645 25.8693 193.128 26.488C193.661 27.4693 194.674 27.96 196.168 27.96C197.128 27.96 198.216 27.6293 199.432 26.968C200.669 26.2853 201.736 25.4 202.632 24.312C202.888 24.0133 203.176 23.864 203.496 23.864ZM195.432 19.224C194.642 19.224 193.97 19.6827 193.416 20.6C192.882 21.5173 192.616 22.6267 192.616 23.928V23.992C193.874 23.6933 194.866 23.2453 195.592 22.648C196.317 22.0507 196.68 21.3573 196.68 20.568C196.68 20.1627 196.562 19.8427 196.328 19.608C196.114 19.352 195.816 19.224 195.432 19.224ZM211.034 26.488C211.269 26.2747 211.503 26.168 211.738 26.168C211.994 26.168 212.197 26.3173 212.346 26.616C212.517 26.8933 212.602 27.2347 212.602 27.64C212.602 28.536 212.282 29.2507 211.642 29.784C210.533 30.7013 209.274 31.16 207.866 31.16C205.839 31.16 204.357 30.3173 203.418 28.632C202.479 26.9253 202.01 24.7067 202.01 21.976C202.01 19.3733 202.341 16.408 203.002 13.08C203.685 9.752 204.677 6.89333 205.978 4.504C207.301 2.11466 208.869 0.919998 210.682 0.919998C211.706 0.919998 212.506 1.4 213.082 2.36C213.679 3.29867 213.978 4.65333 213.978 6.424C213.978 8.96267 213.274 11.9067 211.866 15.256C210.479 18.6053 208.581 21.912 206.17 25.176C206.319 26.0507 206.586 26.68 206.97 27.064C207.354 27.448 207.877 27.64 208.538 27.64C208.901 27.64 209.306 27.5333 209.754 27.32C210.223 27.1067 210.65 26.8293 211.034 26.488ZM209.978 4.088C209.487 4.088 208.933 4.97333 208.314 6.744C207.695 8.51467 207.151 10.712 206.682 13.336C206.213 15.96 205.957 18.4773 205.914 20.888C207.429 18.392 208.634 15.896 209.53 13.4C210.426 10.8827 210.874 8.58933 210.874 6.52C210.874 4.89867 210.575 4.088 209.978 4.088Z" fill="black"/>
</svg>
